[
  {
    "duration_time": "0.033367",
    "pts_time": "0.000000"
  },
  {
    "duration_time": "0.033367",
    "pts_time": "0.033367"
  },
  {
    "duration_time": "0.033367",
    "pts_time": "0.066733"
  },
  {
    "duration_time": "0.033367",
    "pts_time": "0.100100"
  },
  {
    "duration_time": "0.033367",
    "pts_time": "0.133467"
  },
  {
    "duration_time": "0.033367",
    "pts_time": "0.166833"
  },
  {
    "duration_time": "0.033367",
    "pts_time": "0.200200"
  },
  {
    "duration_time": "0.033367",
    "pts_time": "0.233567"
  },
  {
    "duration_time": "0.033367",
    "pts_time": "0.266933"
  },
  {
    "duration_time": "0.033367",
    "pts_time": "0.300300"
  },
  {
    "duration_time": "0.033367",
    "pts_time": "0.333667"
  },
  {
    "duration_time": "0.033367",
    "pts_time": "0.367033"
  },
  {
    "duration_time": "0.033367",
    "pts_time": "0.400400"
  },
  {
    "duration_time": "0.033367",
    "pts_time": "0.433767"
  },
  {
    "duration_time": "0.033367",
    "pts_time": "0.467133"
  },
  {
    "duration_time": "0.033367",
    "pts_time": "0.500500"
  },
  {
    "duration_time": "0.033367",
    "pts_time": "0.533867"
  },
  {
    "duration_time": "0.033367",
    "pts_time": "0.567233"
  },
  {
    "duration_time": "0.033367",
    "pts_time": "0.600600"
  },
  {
    "duration_time": "0.033367",
    "pts_time": "0.633967"
  },
  {
    "duration_time": "0.033367",
    "pts_time": "0.667333"
  },
  {
    "duration_time": "0.033367",
    "pts_time": "0.700700"
  },
  {
    "duration_time": "0.033367",
    "pts_time": "0.734067"
  },
  {
    "duration_time": "0.033367",
    "pts_time": "0.767433"
  },
  {
    "duration_time": "0.033367",
    "pts_time": "0.800800"
  },
  {
    "duration_time": "0.033367",
    "pts_time": "0.834167"
  },
  {
    "duration_time": "0.033367",
    "pts_time": "0.867533"
  },
  {
    "duration_time": "0.033367",
    "pts_time": "0.900900"
  },
  {
    "duration_time": "0.033367",
    "pts_time": "0.934267"
  },
  {
    "duration_time": "0.033367",
    "pts_time": "0.967633"
  },
  {
    "duration_time": "0.033367",
    "pts_time": "1.001000"
  },
  {
    "duration_time": "0.033367",
    "pts_time": "1.034367"
  },
  {
    "duration_time": "0.033367",
    "pts_time": "1.067733"
  },
  {
    "duration_time": "0.033367",
    "pts_time": "1.101100"
  },
  {
    "duration_time": "0.033367",
    "pts_time": "1.134467"
  },
  {
    "duration_time": "0.033367",
    "pts_time": "1.167833"
  },
  {
    "duration_time": "0.033367",
    "pts_time": "1.201200"
  },
  {
    "duration_time": "0.033367",
    "pts_time": "1.234567"
  },
  {
    "duration_time": "0.033367",
    "pts_time": "1.267933"
  },
  {
    "duration_time": "0.033367",
    "pts_time": "1.301300"
  },
  {
    "duration_time": "0.033367",
    "pts_time": "1.334667"
  },
  {
    "duration_time": "0.033367",
    "pts_time": "1.368033"
  },
  {
    "duration_time": "0.033367",
    "pts_time": "1.401400"
  },
  {
    "duration_time": "0.033367",
    "pts_time": "1.434767"
  },
  {
    "duration_time": "0.033367",
    "pts_time": "1.468133"
  },
  {
    "duration_time": "0.033367",
    "pts_time": "1.501500"
  },
  {
    "duration_time": "0.033367",
    "pts_time": "1.534867"
  },
  {
    "duration_time": "0.033367",
    "pts_time": "1.568233"
  },
  {
    "duration_time": "0.033367",
    "pts_time": "1.601600"
  },
  {
    "duration_time": "0.033367",
    "pts_time": "1.634967"
  },
  {
    "duration_time": "0.033367",
    "pts_time": "1.668333"
  },
  {
    "duration_time": "0.033367",
    "pts_time": "1.701700"
  },
  {
    "duration_time": "0.033367",
    "pts_time": "1.735067"
  },
  {
    "duration_time": "0.033367",
    "pts_time": "1.768433"
  },
  {
    "duration_time": "0.033367",
    "pts_time": "1.801800"
  },
  {
    "duration_time": "0.033367",
    "pts_time": "1.835167"
  },
  {
    "duration_time": "0.033367",
    "pts_time": "1.868533"
  },
  {
    "duration_time": "0.033367",
    "pts_time": "1.901900"
  },
  {
    "duration_time": "0.033367",
    "pts_time": "1.935267"
  },
  {
    "duration_time": "0.033367",
    "pts_time": "1.968633"
  },
  {
    "duration_time": "0.033367",
    "pts_time": "2.002000"
  },
  {
    "duration_time": "0.033367",
    "pts_time": "2.035367"
  },
  {
    "duration_time": "0.033367",
    "pts_time": "2.068733"
  },
  {
    "duration_time": "0.033367",
    "pts_time": "2.102100"
  },
  {
    "duration_time": "0.033367",
    "pts_time": "2.135467"
  },
  {
    "duration_time": "0.033367",
    "pts_time": "2.168833"
  },
  {
    "duration_time": "0.033367",
    "pts_time": "2.202200"
  },
  {
    "duration_time": "0.033367",
    "pts_time": "2.235567"
  },
  {
    "duration_time": "0.033367",
    "pts_time": "2.268933"
  },
  {
    "duration_time": "0.033367",
    "pts_time": "2.302300"
  },
  {
    "duration_time": "0.033367",
    "pts_time": "2.335667"
  },
  {
    "duration_time": "0.033367",
    "pts_time": "2.369033"
  },
  {
    "duration_time": "0.033367",
    "pts_time": "2.402400"
  },
  {
    "duration_time": "0.033367",
    "pts_time": "2.435767"
  },
  {
    "duration_time": "0.033367",
    "pts_time": "2.469133"
  },
  {
    "duration_time": "0.033367",
    "pts_time": "2.502500"
  },
  {
    "duration_time": "0.033367",
    "pts_time": "2.535867"
  },
  {
    "duration_time": "0.033367",
    "pts_time": "2.569233"
  },
  {
    "duration_time": "0.033367",
    "pts_time": "2.602600"
  },
  {
    "duration_time": "0.033367",
    "pts_time": "2.635967"
  },
  {
    "duration_time": "0.033367",
    "pts_time": "2.669333"
  },
  {
    "duration_time": "0.033367",
    "pts_time": "2.702700"
  },
  {
    "duration_time": "0.033367",
    "pts_time": "2.736067"
  },
  {
    "duration_time": "0.033367",
    "pts_time": "2.769433"
  },
  {
    "duration_time": "0.033367",
    "pts_time": "2.802800"
  },
  {
    "duration_time": "0.033367",
    "pts_time": "2.836167"
  },
  {
    "duration_time": "0.033367",
    "pts_time": "2.869533"
  },
  {
    "duration_time": "0.033367",
    "pts_time": "2.902900"
  },
  {
    "duration_time": "0.033367",
    "pts_time": "2.936267"
  },
  {
    "duration_time": "0.033367",
    "pts_time": "2.969633"
  },
  {
    "duration_time": "0.033367",
    "pts_time": "3.003000"
  },
  {
    "duration_time": "0.033367",
    "pts_time": "3.036367"
  },
  {
    "duration_time": "0.033367",
    "pts_time": "3.069733"
  },
  {
    "duration_time": "0.033367",
    "pts_time": "3.103100"
  },
  {
    "duration_time": "0.033367",
    "pts_time": "3.136467"
  },
  {
    "duration_time": "0.033367",
    "pts_time": "3.169833"
  },
  {
    "duration_time": "0.033367",
    "pts_time": "3.203200"
  },
  {
    "duration_time": "0.033367",
    "pts_time": "3.236567"
  },
  {
    "duration_time": "0.033367",
    "pts_time": "3.269933"
  },
  {
    "duration_time": "0.033367",
    "pts_time": "3.303300"
  },
  {
    "duration_time": "0.033367",
    "pts_time": "3.336667"
  },
  {
    "duration_time": "0.033367",
    "pts_time": "3.370033"
  },
  {
    "duration_time": "0.033367",
    "pts_time": "3.403400"
  },
  {
    "duration_time": "0.033367",
    "pts_time": "3.436767"
  },
  {
    "duration_time": "0.033367",
    "pts_time": "3.470133"
  },
  {
    "duration_time": "0.033367",
    "pts_time": "3.503500"
  },
  {
    "duration_time": "0.033367",
    "pts_time": "3.536867"
  },
  {
    "duration_time": "0.033367",
    "pts_time": "3.570233"
  },
  {
    "duration_time": "0.033367",
    "pts_time": "3.603600"
  },
  {
    "duration_time": "0.033367",
    "pts_time": "3.636967"
  },
  {
    "duration_time": "0.033367",
    "pts_time": "3.670333"
  },
  {
    "duration_time": "0.033367",
    "pts_time": "3.703700"
  },
  {
    "duration_time": "0.033367",
    "pts_time": "3.737067"
  },
  {
    "duration_time": "0.033367",
    "pts_time": "3.770433"
  },
  {
    "duration_time": "0.033367",
    "pts_time": "3.803800"
  },
  {
    "duration_time": "0.033367",
    "pts_time": "3.837167"
  },
  {
    "duration_time": "0.033367",
    "pts_time": "3.870533"
  },
  {
    "duration_time": "0.033367",
    "pts_time": "3.903900"
  },
  {
    "duration_time": "0.033367",
    "pts_time": "3.937267"
  },
  {
    "duration_time": "0.033367",
    "pts_time": "3.970633"
  },
  {
    "duration_time": "0.033367",
    "pts_time": "4.004000"
  },
  {
    "duration_time": "0.033367",
    "pts_time": "4.037367"
  },
  {
    "duration_time": "0.033367",
    "pts_time": "4.070733"
  },
  {
    "duration_time": "0.033367",
    "pts_time": "4.104100"
  },
  {
    "duration_time": "0.033367",
    "pts_time": "4.137467"
  },
  {
    "duration_time": "0.033367",
    "pts_time": "4.170833"
  },
  {
    "duration_time": "0.033367",
    "pts_time": "4.204200"
  },
  {
    "duration_time": "0.033367",
    "pts_time": "4.237567"
  },
  {
    "duration_time": "0.033367",
    "pts_time": "4.270933"
  },
  {
    "duration_time": "0.033367",
    "pts_time": "4.304300"
  },
  {
    "duration_time": "0.033367",
    "pts_time": "4.337667"
  },
  {
    "duration_time": "0.033367",
    "pts_time": "4.371033"
  },
  {
    "duration_time": "0.033367",
    "pts_time": "4.404400"
  },
  {
    "duration_time": "0.033367",
    "pts_time": "4.437767"
  },
  {
    "duration_time": "0.033367",
    "pts_time": "4.471133"
  },
  {
    "duration_time": "0.033367",
    "pts_time": "4.504500"
  },
  {
    "duration_time": "0.033367",
    "pts_time": "4.537867"
  },
  {
    "duration_time": "0.033367",
    "pts_time": "4.571233"
  },
  {
    "duration_time": "0.033367",
    "pts_time": "4.604600"
  },
  {
    "duration_time": "0.033367",
    "pts_time": "4.637967"
  },
  {
    "duration_time": "0.033367",
    "pts_time": "4.671333"
  },
  {
    "duration_time": "0.033367",
    "pts_time": "4.704700"
  },
  {
    "duration_time": "0.033367",
    "pts_time": "4.738067"
  },
  {
    "duration_time": "0.033367",
    "pts_time": "4.771433"
  },
  {
    "duration_time": "0.033367",
    "pts_time": "4.804800"
  },
  {
    "duration_time": "0.033367",
    "pts_time": "4.838167"
  },
  {
    "duration_time": "0.033367",
    "pts_time": "4.871533"
  },
  {
    "duration_time": "0.033367",
    "pts_time": "4.904900"
  },
  {
    "duration_time": "0.033367",
    "pts_time": "4.938267"
  },
  {
    "duration_time": "0.033367",
    "pts_time": "4.971633"
  },
  {
    "duration_time": "0.033367",
    "pts_time": "5.005000"
  },
  {
    "duration_time": "0.033367",
    "pts_time": "5.038367"
  },
  {
    "duration_time": "0.033367",
    "pts_time": "5.071733"
  },
  {
    "duration_time": "0.033367",
    "pts_time": "5.105100"
  },
  {
    "duration_time": "0.033367",
    "pts_time": "5.138467"
  },
  {
    "duration_time": "0.033367",
    "pts_time": "5.171833"
  },
  {
    "duration_time": "0.033367",
    "pts_time": "5.205200"
  },
  {
    "duration_time": "0.033367",
    "pts_time": "5.238567"
  },
  {
    "duration_time": "0.033367",
    "pts_time": "5.271933"
  },
  {
    "duration_time": "0.033367",
    "pts_time": "5.305300"
  },
  {
    "duration_time": "0.033367",
    "pts_time": "5.338667"
  },
  {
    "duration_time": "0.033367",
    "pts_time": "5.372033"
  },
  {
    "duration_time": "0.033367",
    "pts_time": "5.405400"
  },
  {
    "duration_time": "0.033367",
    "pts_time": "5.438767"
  },
  {
    "duration_time": "0.033367",
    "pts_time": "5.472133"
  },
  {
    "duration_time": "0.033367",
    "pts_time": "5.505500"
  },
  {
    "duration_time": "0.033367",
    "pts_time": "5.538867"
  },
  {
    "duration_time": "0.033367",
    "pts_time": "5.572233"
  },
  {
    "duration_time": "0.033367",
    "pts_time": "5.605600"
  },
  {
    "duration_time": "0.033367",
    "pts_time": "5.638967"
  },
  {
    "duration_time": "0.033367",
    "pts_time": "5.672333"
  },
  {
    "duration_time": "0.033367",
    "pts_time": "5.705700"
  },
  {
    "duration_time": "0.033367",
    "pts_time": "5.739067"
  },
  {
    "duration_time": "0.033367",
    "pts_time": "5.772433"
  },
  {
    "duration_time": "0.033367",
    "pts_time": "5.805800"
  },
  {
    "duration_time": "0.033367",
    "pts_time": "5.839167"
  },
  {
    "duration_time": "0.033367",
    "pts_time": "5.872533"
  },
  {
    "duration_time": "0.033367",
    "pts_time": "5.905900"
  },
  {
    "duration_time": "0.033367",
    "pts_time": "5.939267"
  },
  {
    "duration_time": "0.033367",
    "pts_time": "5.972633"
  },
  {
    "duration_time": "0.033367",
    "pts_time": "6.006000"
  },
  {
    "duration_time": "0.033367",
    "pts_time": "6.039367"
  },
  {
    "duration_time": "0.033367",
    "pts_time": "6.072733"
  },
  {
    "duration_time": "0.033367",
    "pts_time": "6.106100"
  },
  {
    "duration_time": "0.033367",
    "pts_time": "6.139467"
  },
  {
    "duration_time": "0.033367",
    "pts_time": "6.172833"
  },
  {
    "duration_time": "0.033367",
    "pts_time": "6.206200"
  },
  {
    "duration_time": "0.033367",
    "pts_time": "6.239567"
  },
  {
    "duration_time": "0.033367",
    "pts_time": "6.272933"
  },
  {
    "duration_time": "0.033367",
    "pts_time": "6.306300"
  },
  {
    "duration_time": "0.033367",
    "pts_time": "6.339667"
  },
  {
    "duration_time": "0.033367",
    "pts_time": "6.373033"
  },
  {
    "duration_time": "0.033367",
    "pts_time": "6.406400"
  },
  {
    "duration_time": "0.033367",
    "pts_time": "6.439767"
  },
  {
    "duration_time": "0.033367",
    "pts_time": "6.473133"
  },
  {
    "duration_time": "0.033367",
    "pts_time": "6.506500"
  },
  {
    "duration_time": "0.033367",
    "pts_time": "6.539867"
  },
  {
    "duration_time": "0.033367",
    "pts_time": "6.573233"
  },
  {
    "duration_time": "0.033367",
    "pts_time": "6.606600"
  },
  {
    "duration_time": "0.033367",
    "pts_time": "6.639967"
  },
  {
    "duration_time": "0.033367",
    "pts_time": "6.673333"
  },
  {
    "duration_time": "0.033367",
    "pts_time": "6.706700"
  },
  {
    "duration_time": "0.033367",
    "pts_time": "6.740067"
  },
  {
    "duration_time": "0.033367",
    "pts_time": "6.773433"
  },
  {
    "duration_time": "0.033367",
    "pts_time": "6.806800"
  },
  {
    "duration_time": "0.033367",
    "pts_time": "6.840167"
  },
  {
    "duration_time": "0.033367",
    "pts_time": "6.873533"
  },
  {
    "duration_time": "0.033367",
    "pts_time": "6.906900"
  },
  {
    "duration_time": "0.033367",
    "pts_time": "6.940267"
  },
  {
    "duration_time": "0.033367",
    "pts_time": "6.973633"
  },
  {
    "duration_time": "0.033367",
    "pts_time": "7.007000"
  },
  {
    "duration_time": "0.033367",
    "pts_time": "7.040367"
  },
  {
    "duration_time": "0.033367",
    "pts_time": "7.073733"
  },
  {
    "duration_time": "0.033367",
    "pts_time": "7.107100"
  },
  {
    "duration_time": "0.033367",
    "pts_time": "7.140467"
  },
  {
    "duration_time": "0.033367",
    "pts_time": "7.173833"
  },
  {
    "duration_time": "0.033367",
    "pts_time": "7.207200"
  },
  {
    "duration_time": "0.033367",
    "pts_time": "7.240567"
  },
  {
    "duration_time": "0.033367",
    "pts_time": "7.273933"
  },
  {
    "duration_time": "0.033367",
    "pts_time": "7.307300"
  },
  {
    "duration_time": "0.033367",
    "pts_time": "7.340667"
  },
  {
    "duration_time": "0.033367",
    "pts_time": "7.374033"
  },
  {
    "duration_time": "0.033367",
    "pts_time": "7.407400"
  },
  {
    "duration_time": "0.033367",
    "pts_time": "7.440767"
  },
  {
    "duration_time": "0.033367",
    "pts_time": "7.474133"
  },
  {
    "duration_time": "0.033367",
    "pts_time": "7.507500"
  },
  {
    "duration_time": "0.033367",
    "pts_time": "7.540867"
  },
  {
    "duration_time": "0.033367",
    "pts_time": "7.574233"
  },
  {
    "duration_time": "0.033367",
    "pts_time": "7.607600"
  },
  {
    "duration_time": "0.033367",
    "pts_time": "7.640967"
  },
  {
    "duration_time": "0.033367",
    "pts_time": "7.674333"
  },
  {
    "duration_time": "0.033367",
    "pts_time": "7.707700"
  },
  {
    "duration_time": "0.033367",
    "pts_time": "7.741067"
  },
  {
    "duration_time": "0.033367",
    "pts_time": "7.774433"
  },
  {
    "duration_time": "0.033367",
    "pts_time": "7.807800"
  },
  {
    "duration_time": "0.033367",
    "pts_time": "7.841167"
  },
  {
    "duration_time": "0.033367",
    "pts_time": "7.874533"
  },
  {
    "duration_time": "0.033367",
    "pts_time": "7.907900"
  },
  {
    "duration_time": "0.033367",
    "pts_time": "7.941267"
  },
  {
    "duration_time": "0.033367",
    "pts_time": "7.974633"
  },
  {
    "duration_time": "0.033367",
    "pts_time": "8.008000"
  },
  {
    "duration_time": "0.033367",
    "pts_time": "8.041367"
  },
  {
    "duration_time": "0.033367",
    "pts_time": "8.074733"
  },
  {
    "duration_time": "0.033367",
    "pts_time": "8.108100"
  },
  {
    "duration_time": "0.033367",
    "pts_time": "8.141467"
  },
  {
    "duration_time": "0.033367",
    "pts_time": "8.174833"
  },
  {
    "duration_time": "0.033367",
    "pts_time": "8.208200"
  },
  {
    "duration_time": "0.033367",
    "pts_time": "8.241567"
  },
  {
    "duration_time": "0.033367",
    "pts_time": "8.274933"
  },
  {
    "duration_time": "0.033367",
    "pts_time": "8.308300"
  },
  {
    "duration_time": "0.033367",
    "pts_time": "8.341667"
  },
  {
    "duration_time": "0.033367",
    "pts_time": "8.375033"
  },
  {
    "duration_time": "0.033367",
    "pts_time": "8.408400"
  },
  {
    "duration_time": "0.033367",
    "pts_time": "8.441767"
  },
  {
    "duration_time": "0.033367",
    "pts_time": "8.475133"
  },
  {
    "duration_time": "0.033367",
    "pts_time": "8.508500"
  },
  {
    "duration_time": "0.033367",
    "pts_time": "8.541867"
  },
  {
    "duration_time": "0.033367",
    "pts_time": "8.575233"
  },
  {
    "duration_time": "0.033367",
    "pts_time": "8.608600"
  },
  {
    "duration_time": "0.033367",
    "pts_time": "8.641967"
  },
  {
    "duration_time": "0.033367",
    "pts_time": "8.675333"
  },
  {
    "duration_time": "0.033367",
    "pts_time": "8.708700"
  },
  {
    "duration_time": "0.033367",
    "pts_time": "8.742067"
  },
  {
    "duration_time": "0.033367",
    "pts_time": "8.775433"
  },
  {
    "duration_time": "0.033367",
    "pts_time": "8.808800"
  },
  {
    "duration_time": "0.033367",
    "pts_time": "8.842167"
  },
  {
    "duration_time": "0.033367",
    "pts_time": "8.875533"
  },
  {
    "duration_time": "0.033367",
    "pts_time": "8.908900"
  },
  {
    "duration_time": "0.033367",
    "pts_time": "8.942267"
  },
  {
    "duration_time": "0.033367",
    "pts_time": "8.975633"
  },
  {
    "duration_time": "0.033367",
    "pts_time": "9.009000"
  },
  {
    "duration_time": "0.033367",
    "pts_time": "9.042367"
  },
  {
    "duration_time": "0.033367",
    "pts_time": "9.075733"
  },
  {
    "duration_time": "0.033367",
    "pts_time": "9.109100"
  },
  {
    "duration_time": "0.033367",
    "pts_time": "9.142467"
  },
  {
    "duration_time": "0.033367",
    "pts_time": "9.175833"
  },
  {
    "duration_time": "0.033367",
    "pts_time": "9.209200"
  },
  {
    "duration_time": "0.033367",
    "pts_time": "9.242567"
  },
  {
    "duration_time": "0.033367",
    "pts_time": "9.275933"
  },
  {
    "duration_time": "0.033367",
    "pts_time": "9.309300"
  },
  {
    "duration_time": "0.033367",
    "pts_time": "9.342667"
  },
  {
    "duration_time": "0.033367",
    "pts_time": "9.376033"
  },
  {
    "duration_time": "0.033367",
    "pts_time": "9.409400"
  },
  {
    "duration_time": "0.033367",
    "pts_time": "9.442767"
  },
  {
    "duration_time": "0.033367",
    "pts_time": "9.476133"
  },
  {
    "duration_time": "0.033367",
    "pts_time": "9.509500"
  },
  {
    "duration_time": "0.033367",
    "pts_time": "9.542867"
  },
  {
    "duration_time": "0.033367",
    "pts_time": "9.576233"
  },
  {
    "duration_time": "0.033367",
    "pts_time": "9.609600"
  },
  {
    "duration_time": "0.033367",
    "pts_time": "9.642967"
  },
  {
    "duration_time": "0.033367",
    "pts_time": "9.676333"
  },
  {
    "duration_time": "0.033367",
    "pts_time": "9.709700"
  },
  {
    "duration_time": "0.033367",
    "pts_time": "9.743067"
  },
  {
    "duration_time": "0.033367",
    "pts_time": "9.776433"
  },
  {
    "duration_time": "0.033367",
    "pts_time": "9.809800"
  },
  {
    "duration_time": "0.033367",
    "pts_time": "9.843167"
  },
  {
    "duration_time": "0.033367",
    "pts_time": "9.876533"
  },
  {
    "duration_time": "0.033367",
    "pts_time": "9.909900"
  },
  {
    "duration_time": "0.033367",
    "pts_time": "9.943267"
  },
  {
    "duration_time": "0.033367",
    "pts_time": "9.976633"
  },
  {
    "duration_time": "0.033367",
    "pts_time": "10.010000"
  },
  {
    "duration_time": "0.033367",
    "pts_time": "10.043367"
  },
  {
    "duration_time": "0.033367",
    "pts_time": "10.076733"
  },
  {
    "duration_time": "0.033367",
    "pts_time": "10.110100"
  },
  {
    "duration_time": "0.033367",
    "pts_time": "10.143467"
  },
  {
    "duration_time": "0.033367",
    "pts_time": "10.176833"
  },
  {
    "duration_time": "0.033367",
    "pts_time": "10.210200"
  },
  {
    "duration_time": "0.033367",
    "pts_time": "10.243567"
  },
  {
    "duration_time": "0.033367",
    "pts_time": "10.276933"
  },
  {
    "duration_time": "0.033367",
    "pts_time": "10.310300"
  },
  {
    "duration_time": "0.033367",
    "pts_time": "10.343667"
  },
  {
    "duration_time": "0.033367",
    "pts_time": "10.377033"
  },
  {
    "duration_time": "0.033367",
    "pts_time": "10.410400"
  },
  {
    "duration_time": "0.033367",
    "pts_time": "10.443767"
  },
  {
    "duration_time": "0.033367",
    "pts_time": "10.477133"
  },
  {
    "duration_time": "0.033367",
    "pts_time": "10.510500"
  },
  {
    "duration_time": "0.033367",
    "pts_time": "10.543867"
  },
  {
    "duration_time": "0.033367",
    "pts_time": "10.577233"
  },
  {
    "duration_time": "0.033367",
    "pts_time": "10.610600"
  },
  {
    "duration_time": "0.033367",
    "pts_time": "10.643967"
  },
  {
    "duration_time": "0.033367",
    "pts_time": "10.677333"
  },
  {
    "duration_time": "0.033367",
    "pts_time": "10.710700"
  },
  {
    "duration_time": "0.033367",
    "pts_time": "10.744067"
  },
  {
    "duration_time": "0.033367",
    "pts_time": "10.777433"
  },
  {
    "duration_time": "0.033367",
    "pts_time": "10.810800"
  },
  {
    "duration_time": "0.033367",
    "pts_time": "10.844167"
  },
  {
    "duration_time": "0.033367",
    "pts_time": "10.877533"
  },
  {
    "duration_time": "0.033367",
    "pts_time": "10.910900"
  },
  {
    "duration_time": "0.033367",
    "pts_time": "10.944267"
  },
  {
    "duration_time": "0.033367",
    "pts_time": "10.977633"
  },
  {
    "duration_time": "0.033367",
    "pts_time": "11.011000"
  },
  {
    "duration_time": "0.033367",
    "pts_time": "11.044367"
  },
  {
    "duration_time": "0.033367",
    "pts_time": "11.077733"
  },
  {
    "duration_time": "0.033367",
    "pts_time": "11.111100"
  },
  {
    "duration_time": "0.033367",
    "pts_time": "11.144467"
  },
  {
    "duration_time": "0.033367",
    "pts_time": "11.177833"
  },
  {
    "duration_time": "0.033367",
    "pts_time": "11.211200"
  },
  {
    "duration_time": "0.033367",
    "pts_time": "11.244567"
  },
  {
    "duration_time": "0.033367",
    "pts_time": "11.277933"
  },
  {
    "duration_time": "0.033367",
    "pts_time": "11.311300"
  },
  {
    "duration_time": "0.033367",
    "pts_time": "11.344667"
  },
  {
    "duration_time": "0.033367",
    "pts_time": "11.378033"
  },
  {
    "duration_time": "0.033367",
    "pts_time": "11.411400"
  },
  {
    "duration_time": "0.033367",
    "pts_time": "11.444767"
  },
  {
    "duration_time": "0.033367",
    "pts_time": "11.478133"
  },
  {
    "duration_time": "0.033367",
    "pts_time": "11.511500"
  },
  {
    "duration_time": "0.033367",
    "pts_time": "11.544867"
  },
  {
    "duration_time": "0.033367",
    "pts_time": "11.578233"
  },
  {
    "duration_time": "0.033367",
    "pts_time": "11.611600"
  },
  {
    "duration_time": "0.033367",
    "pts_time": "11.644967"
  },
  {
    "duration_time": "0.033367",
    "pts_time": "11.678333"
  },
  {
    "duration_time": "0.033367",
    "pts_time": "11.711700"
  },
  {
    "duration_time": "0.033367",
    "pts_time": "11.745067"
  },
  {
    "duration_time": "0.033367",
    "pts_time": "11.778433"
  },
  {
    "duration_time": "0.033367",
    "pts_time": "11.811800"
  },
  {
    "duration_time": "0.033367",
    "pts_time": "11.845167"
  },
  {
    "duration_time": "0.033367",
    "pts_time": "11.878533"
  },
  {
    "duration_time": "0.033367",
    "pts_time": "11.911900"
  },
  {
    "duration_time": "0.033367",
    "pts_time": "11.945267"
  },
  {
    "duration_time": "0.033367",
    "pts_time": "11.978633"
  },
  {
    "duration_time": "0.033367",
    "pts_time": "12.012000"
  },
  {
    "duration_time": "0.033367",
    "pts_time": "12.045367"
  },
  {
    "duration_time": "0.033367",
    "pts_time": "12.078733"
  },
  {
    "duration_time": "0.033367",
    "pts_time": "12.112100"
  },
  {
    "duration_time": "0.033367",
    "pts_time": "12.145467"
  },
  {
    "duration_time": "0.033367",
    "pts_time": "12.178833"
  },
  {
    "duration_time": "0.033367",
    "pts_time": "12.212200"
  },
  {
    "duration_time": "0.033367",
    "pts_time": "12.245567"
  },
  {
    "duration_time": "0.033367",
    "pts_time": "12.278933"
  },
  {
    "duration_time": "0.033367",
    "pts_time": "12.312300"
  },
  {
    "duration_time": "0.033367",
    "pts_time": "12.345667"
  },
  {
    "duration_time": "0.033367",
    "pts_time": "12.379033"
  },
  {
    "duration_time": "0.033367",
    "pts_time": "12.412400"
  },
  {
    "duration_time": "0.033367",
    "pts_time": "12.445767"
  },
  {
    "duration_time": "0.033367",
    "pts_time": "12.479133"
  },
  {
    "duration_time": "0.033367",
    "pts_time": "12.512500"
  },
  {
    "duration_time": "0.033367",
    "pts_time": "12.545867"
  },
  {
    "duration_time": "0.033367",
    "pts_time": "12.579233"
  },
  {
    "duration_time": "0.033367",
    "pts_time": "12.612600"
  },
  {
    "duration_time": "0.033367",
    "pts_time": "12.645967"
  },
  {
    "duration_time": "0.033367",
    "pts_time": "12.679333"
  },
  {
    "duration_time": "0.033367",
    "pts_time": "12.712700"
  },
  {
    "duration_time": "0.033367",
    "pts_time": "12.746067"
  },
  {
    "duration_time": "0.033367",
    "pts_time": "12.779433"
  },
  {
    "duration_time": "0.033367",
    "pts_time": "12.812800"
  },
  {
    "duration_time": "0.033367",
    "pts_time": "12.846167"
  },
  {
    "duration_time": "0.033367",
    "pts_time": "12.879533"
  },
  {
    "duration_time": "0.033367",
    "pts_time": "12.912900"
  },
  {
    "duration_time": "0.033367",
    "pts_time": "12.946267"
  },
  {
    "duration_time": "0.033367",
    "pts_time": "12.979633"
  }
]
